<svg width="129" height="55" viewBox="0 0 129 55" fill="none" xmlns="http://www.w3.org/2000/svg">
<path d="M77.2071 15.8467C77.2071 16.8515 77.2071 17.8564 77.2071 18.8613C77.2071 21.2513 77.2071 23.6412 77.2071 26.0312C77.2071 28.9055 77.2071 31.7753 77.2071 34.6496C77.2071 37.1029 77.2071 39.5608 77.2071 42.0141C77.2071 43.1503 77.2116 44.2864 77.2071 45.4226C77.2071 45.6172 77.1935 45.8118 77.1708 46.0065C77.189 45.8843 77.2025 45.7666 77.2206 45.6444C77.1708 46.0065 77.0758 46.3595 76.9355 46.699C76.9807 46.5904 77.026 46.4818 77.0713 46.3731C76.9717 46.613 76.8495 46.8393 76.7091 47.0566C76.6956 47.0792 76.596 47.2513 76.5734 47.2513C76.6005 47.2513 76.8223 46.9435 76.6413 47.1607C76.5598 47.2603 76.4738 47.3554 76.3832 47.4459C76.2927 47.5364 76.1977 47.6224 76.0981 47.7039C76.0121 47.7763 75.8401 47.8623 76.1886 47.636C76.1298 47.6722 76.0754 47.7175 76.0211 47.7537C75.7993 47.9031 75.5594 48.0298 75.315 48.1339C75.4236 48.0886 75.5323 48.0434 75.6409 47.9981C75.3014 48.1384 74.9484 48.2335 74.5862 48.2833C74.7085 48.2652 74.8261 48.2516 74.9484 48.2335C74.1245 48.3376 73.2645 48.2697 72.4362 48.2697C70.7387 48.2697 69.0413 48.2697 67.3439 48.2697C65.2663 48.2697 63.1931 48.2697 61.1155 48.2697C59.3275 48.2697 57.5441 48.2697 55.7562 48.2697C54.9459 48.2697 54.1357 48.2742 53.3255 48.2697C53.1353 48.2697 52.9452 48.2561 52.7551 48.2335C52.8773 48.2516 52.995 48.2652 53.1172 48.2833C52.7551 48.2335 52.4021 48.1384 52.0626 47.9981C52.1712 48.0434 52.2798 48.0886 52.3885 48.1339C52.1486 48.0343 51.9222 47.9121 51.705 47.7718C51.6823 47.7582 51.5103 47.6586 51.5103 47.636C51.5103 47.6632 51.8181 47.885 51.6009 47.7039C51.5013 47.6224 51.4062 47.5364 51.3157 47.4459C51.2252 47.3554 51.1392 47.2603 51.0577 47.1607C50.9853 47.0747 50.8993 46.9027 51.1256 47.2513C51.0894 47.1924 51.0441 47.1381 51.0079 47.0838C50.8585 46.862 50.7318 46.6221 50.6277 46.3776C50.6729 46.4863 50.7182 46.5949 50.7635 46.7035C50.6232 46.3641 50.5281 46.011 50.4783 45.6489C50.4964 45.7711 50.51 45.8888 50.5281 46.011C50.4783 45.6036 50.4919 45.1872 50.4919 44.7753C50.4919 44.0782 50.4919 43.3811 50.4919 42.6886C50.4919 40.3439 50.4919 37.9992 50.4919 35.6545C50.4919 32.7847 50.4919 29.9149 50.4919 27.0451C50.4919 24.5511 50.4919 22.057 50.4919 19.5629C50.4919 18.3453 50.51 17.1277 50.4919 15.91C50.4919 15.8919 50.4919 15.8738 50.4919 15.8557C50.4919 15.1451 49.8672 14.4661 49.1339 14.4978C48.3961 14.5295 47.776 15.0953 47.776 15.8557C47.776 16.4079 47.776 16.9602 47.776 17.5124C47.776 18.9428 47.776 20.3731 47.776 21.8035C47.776 23.7499 47.776 25.6917 47.776 27.6381C47.776 29.752 47.776 31.8613 47.776 33.9751C47.776 35.9034 47.776 37.8317 47.776 39.76C47.776 41.1541 47.776 42.5483 47.776 43.9469C47.776 44.5897 47.7307 45.2506 47.7986 45.8933C47.8937 46.7941 48.1427 47.6722 48.6496 48.4372C49.1339 49.175 49.7767 49.8087 50.5417 50.2523C51.4334 50.7683 52.4383 50.9992 53.4612 50.9992C54.5069 50.9992 55.5525 50.9992 56.5981 50.9992C58.5037 50.9992 60.4139 50.9992 62.3195 50.9992C64.3926 50.9992 66.4703 50.9992 68.5434 50.9992C70.0915 50.9992 71.6395 50.9992 73.1876 50.9992C73.5497 50.9992 73.9073 50.9992 74.2694 50.9992C75.3195 50.9992 76.3697 50.7457 77.2659 50.1889C78.8411 49.2157 79.8098 47.5409 79.9229 45.7032C79.9365 45.4905 79.932 45.2777 79.932 45.065C79.932 44.0556 79.932 43.0462 79.932 42.0368C79.932 40.3258 79.932 38.6102 79.932 36.8992C79.932 34.8306 79.932 32.7666 79.932 30.698C79.932 28.6294 79.932 26.5608 79.932 24.4877C79.932 22.7631 79.932 21.0385 79.932 19.3094C79.932 18.291 79.932 17.277 79.932 16.2586C79.932 16.1228 79.932 15.987 79.932 15.8512C79.932 15.1405 79.3073 14.4616 78.574 14.4933C77.8272 14.5204 77.2071 15.0817 77.2071 15.8467Z" fill="#FF5555"/>
<path d="M82.3221 14.2623C81.9917 14.2623 81.6658 14.2623 81.3353 14.2623C80.4391 14.2623 79.5474 14.2623 78.6511 14.2623C77.3204 14.2623 75.9896 14.2623 74.6588 14.2623C73.0428 14.2623 71.4269 14.2623 69.811 14.2623C68.0411 14.2623 66.2713 14.2623 64.5014 14.2623C62.7135 14.2623 60.9255 14.2623 59.1421 14.2623C57.4763 14.2623 55.8106 14.2623 54.1403 14.2623C52.7326 14.2623 51.3249 14.2623 49.9126 14.2623C48.8987 14.2623 47.8848 14.2623 46.8708 14.2623C46.391 14.2623 45.9067 14.2577 45.4224 14.2623C45.3997 14.2623 45.3816 14.2623 45.359 14.2623C44.6484 14.2623 43.9694 14.8869 44.0011 15.6202C44.0328 16.358 44.5986 16.9781 45.359 16.9781C45.6894 16.9781 46.0153 16.9781 46.3458 16.9781C47.242 16.9781 48.1337 16.9781 49.03 16.9781C50.3607 16.9781 51.6915 16.9781 53.0223 16.9781C54.6383 16.9781 56.2542 16.9781 57.8701 16.9781C59.64 16.9781 61.4098 16.9781 63.1797 16.9781C64.9676 16.9781 66.7556 16.9781 68.539 16.9781C70.2048 16.9781 71.8705 16.9781 73.5408 16.9781C74.9485 16.9781 76.3562 16.9781 77.7685 16.9781C78.7824 16.9781 79.7963 16.9781 80.8103 16.9781C81.2901 16.9781 81.7744 16.9827 82.2587 16.9781C82.2814 16.9781 82.2995 16.9781 82.3221 16.9781C83.0327 16.9781 83.7117 16.3535 83.68 15.6202C83.6438 14.8824 83.0825 14.2623 82.3221 14.2623Z" fill="#FF5555"/>
<path d="M74.9837 15.6188C74.9837 14.6773 74.9837 13.7357 74.9837 12.7942C74.9837 12.2737 74.9837 11.7803 74.8887 11.2598C74.6895 10.1734 73.9608 9.21381 73.0419 8.62537C72.2045 8.08673 71.263 8.00072 70.3034 8.00072C69.4886 8.00072 68.6738 8.00072 67.8591 8.00072C65.451 8.00072 63.0475 8.00072 60.6394 8.00072C59.6934 8.00072 58.7518 8.00072 57.8058 8.00072C57.2083 8.00072 56.6335 7.98714 56.0405 8.07767C54.927 8.25421 53.9674 8.96939 53.3473 9.88826C52.881 10.5763 52.6909 11.4137 52.6909 12.2375C52.6909 13.2695 52.6909 14.3016 52.6909 15.3336C52.6909 15.4286 52.6909 15.5237 52.6909 15.6188C52.6909 16.3294 53.3156 17.0084 54.0489 16.9767C54.7867 16.945 55.4068 16.3792 55.4068 15.6188C55.4068 14.9896 55.4068 14.3604 55.4068 13.7312C55.4068 13.0749 55.3525 12.3914 55.434 11.7396C55.4158 11.8618 55.4023 11.9795 55.3842 12.1017C55.4204 11.8618 55.4837 11.6264 55.5743 11.4001C55.529 11.5087 55.4837 11.6174 55.4385 11.726C55.5064 11.5721 55.5833 11.4227 55.6784 11.2824C55.701 11.2507 55.7236 11.219 55.7463 11.1874C55.8232 11.0651 55.5426 11.4273 55.6422 11.3231C55.7055 11.2598 55.7553 11.1919 55.8187 11.1285C55.873 11.0742 55.9364 11.0244 55.9907 10.9701C56.1265 10.8433 55.8549 11.0787 55.8549 11.0742C55.8549 11.0651 55.9409 11.0108 55.95 11.0063C56.0993 10.9067 56.2532 10.8252 56.4207 10.7528C56.3121 10.7981 56.2035 10.8433 56.0948 10.8886C56.3211 10.7981 56.552 10.7347 56.7964 10.6985C56.6742 10.7166 56.5565 10.7302 56.4343 10.7483C56.9865 10.6804 57.5659 10.7211 58.1227 10.7211C59.2543 10.7211 60.3904 10.7211 61.522 10.7211C64.0931 10.7211 66.6641 10.7211 69.2306 10.7211C69.8915 10.7211 70.584 10.6668 71.2404 10.7483C71.1181 10.7302 71.0005 10.7166 70.8782 10.6985C71.1181 10.7347 71.3535 10.7981 71.5798 10.8886C71.4712 10.8433 71.3626 10.7981 71.2539 10.7528C71.4078 10.8207 71.5572 10.8977 71.6975 10.9927C71.7292 11.0153 71.7609 11.038 71.7926 11.0606C71.9148 11.1376 71.5527 10.8569 71.6568 10.9565C71.7202 11.0199 71.7881 11.0697 71.8514 11.133C71.9057 11.1874 71.9555 11.2507 72.0099 11.305C72.1366 11.4408 71.9012 11.1692 71.9057 11.1692C71.9148 11.1692 71.9691 11.2552 71.9736 11.2643C72.0732 11.4137 72.1547 11.5676 72.2271 11.7351C72.1819 11.6264 72.1366 11.5178 72.0913 11.4091C72.1819 11.6355 72.2452 11.8663 72.2814 12.1107C72.2633 11.9885 72.2498 11.8708 72.2316 11.7486C72.3131 12.4004 72.2588 13.0839 72.2588 13.7403C72.2588 14.3695 72.2588 14.9986 72.2588 15.6278C72.2588 16.3385 72.8835 17.0174 73.6167 16.9857C74.3636 16.945 74.9837 16.3792 74.9837 15.6188Z" fill="#FF5555"/>
<path d="M54.3677 21.5475C54.3677 22.2898 54.3677 23.0322 54.3677 23.779C54.3677 25.5625 54.3677 27.3459 54.3677 29.1338C54.3677 31.2839 54.3677 33.434 54.3677 35.584C54.3677 37.4444 54.3677 39.3048 54.3677 41.1652C54.3677 42.075 54.3496 42.9848 54.3677 43.8901C54.3677 43.9037 54.3677 43.9173 54.3677 43.9308C54.3677 44.6415 54.9923 45.3205 55.7256 45.2888C56.4634 45.2571 57.0835 44.6913 57.0835 43.9308C57.0835 43.1885 57.0835 42.4462 57.0835 41.6993C57.0835 39.9159 57.0835 38.1324 57.0835 36.3445C57.0835 34.1944 57.0835 32.0443 57.0835 29.8943C57.0835 28.0339 57.0835 26.1735 57.0835 24.3131C57.0835 23.4033 57.1016 22.4935 57.0835 21.5882C57.0835 21.5746 57.0835 21.5611 57.0835 21.5475C57.0835 20.8368 56.4589 20.1579 55.7256 20.1895C54.9878 20.2212 54.3677 20.7825 54.3677 21.5475Z" fill="#FF5555"/>
<path d="M65.1971 43.9235C65.1971 43.1812 65.1971 42.4388 65.1971 41.692C65.1971 39.9085 65.1971 38.1251 65.1971 36.3372C65.1971 34.1871 65.1971 32.037 65.1971 29.887C65.1971 28.0266 65.1971 26.1662 65.1971 24.3058C65.1971 23.396 65.2152 22.4862 65.1971 21.5809C65.1971 21.5673 65.1971 21.5537 65.1971 21.5402C65.1971 20.8295 64.5724 20.1505 63.8391 20.1822C63.1013 20.2139 62.4812 20.7797 62.4812 21.5402C62.4812 22.2825 62.4812 23.0248 62.4812 23.7717C62.4812 25.5551 62.4812 27.3386 62.4812 29.1265C62.4812 31.2766 62.4812 33.4266 62.4812 35.5767C62.4812 37.4371 62.4812 39.2975 62.4812 41.1578C62.4812 42.0677 62.4631 42.9775 62.4812 43.8828C62.4812 43.8963 62.4812 43.9099 62.4812 43.9235C62.4812 44.6342 63.1058 45.3131 63.8391 45.2814C64.5769 45.2498 65.1971 44.684 65.1971 43.9235Z" fill="#FF5555"/>
<path d="M73.3147 43.9235C73.3147 43.1812 73.3147 42.4388 73.3147 41.692C73.3147 39.9085 73.3147 38.1251 73.3147 36.3372C73.3147 34.1871 73.3147 32.037 73.3147 29.887C73.3147 28.0266 73.3147 26.1662 73.3147 24.3058C73.3147 23.396 73.3328 22.4862 73.3147 21.5809C73.3147 21.5673 73.3147 21.5537 73.3147 21.5402C73.3147 20.8295 72.6901 20.1505 71.9568 20.1822C71.219 20.2139 70.5989 20.7797 70.5989 21.5402C70.5989 22.2825 70.5989 23.0248 70.5989 23.7717C70.5989 25.5551 70.5989 27.3386 70.5989 29.1265C70.5989 31.2766 70.5989 33.4266 70.5989 35.5767C70.5989 37.4371 70.5989 39.2975 70.5989 41.1578C70.5989 42.0677 70.5808 42.9775 70.5989 43.8828C70.5989 43.8963 70.5989 43.9099 70.5989 43.9235C70.5989 44.6342 71.2235 45.3131 71.9568 45.2814C72.6946 45.2498 73.3147 44.684 73.3147 43.9235Z" fill="#FF5555"/>
<circle cx="97.6638" cy="12.9778" r="1.66384" fill="#969696"/>
<circle cx="101.99" cy="2.66214" r="2.66214" fill="#BCCBD6" fill-opacity="0.48"/>
<path d="M110.534 13.657L108.726 11.8497L106.894 13.6825L106.172 12.9612L108.005 11.1284L106.206 9.32952L106.86 8.67616L108.658 10.475L110.5 8.63373L111.221 9.35498L109.38 11.1963L111.187 13.0036L110.534 13.657Z" fill="#FF5555"/>
<circle cx="1.72728" cy="15.5002" r="1.72728" fill="#BCCBD6" fill-opacity="0.48"/>
<circle cx="17.2724" cy="7.72728" r="1.72728" fill="#BCCBD6" fill-opacity="0.48"/>
<path d="M14.2308 23.7146L12.4235 21.9072L10.5906 23.74L9.8694 23.0188L11.7022 21.1859L9.90334 19.3871L10.5567 18.7337L12.3556 20.5326L14.1969 18.6913L14.9181 19.4125L13.0768 21.2538L14.8842 23.0612L14.2308 23.7146Z" fill="#FF5555"/>
<circle cx="112.505" cy="27.2817" r="1.71209" transform="rotate(-33.6851 112.505 27.2817)" fill="#BCCBD6" fill-opacity="0.48"/>
<circle cx="113.69" cy="42.9521" r="1.71209" transform="rotate(-33.6851 113.69 42.9521)" fill="#FF5555"/>
<path d="M125.792 45.1024L123.665 46.5201L125.103 48.6769L124.254 49.2426L122.816 47.0858L120.699 48.4967L120.187 47.7279L122.304 46.3169L120.86 44.1501L121.708 43.5844L123.153 45.7512L125.279 44.3336L125.792 45.1024Z" fill="#E8E8E8"/>
</svg>
