<svg width="20" height="20" viewBox="0 0 20 20" fill="none" xmlns="http://www.w3.org/2000/svg">
<path d="M2 0H18C19.084 0 20 0.981429 20 2.14286V13.9286C20 15.09 19.084 16.0714 18 16.0714H5.66667L2.91333 19.8832C2.84867 19.9589 2.75867 20 2.66667 20C2.62633 20 2.58567 19.9921 2.54633 19.9761C2.418 19.9229 2.33333 19.7904 2.33333 19.6429L2.83333 16.0714H2C0.916 16.0714 0 15.09 0 13.9286V2.14286C0 0.981429 0.916 0 2 0Z" fill="#DE0017"/>
<path d="M12.13 12.26L10.91 10.94C10.61 11.0267 10.28 11.07 9.92 11.07C9.27333 11.07 8.67667 10.92 8.13 10.62C7.59 10.3133 7.16 9.89 6.84 9.35C6.52667 8.80333 6.37 8.19 6.37 7.51C6.37 6.83 6.52667 6.22 6.84 5.68C7.16 5.14 7.59 4.72 8.13 4.42C8.67667 4.11333 9.27333 3.96 9.92 3.96C10.5733 3.96 11.17 4.11333 11.71 4.42C12.2567 4.72 12.6867 5.14 13 5.68C13.3133 6.22 13.47 6.83 13.47 7.51C13.47 8.15 13.33 8.73 13.05 9.25C12.7767 9.76333 12.3967 10.1767 11.91 10.49L13.58 12.26H12.13ZM7.54 7.51C7.54 8.02333 7.64 8.47667 7.84 8.87C8.04667 9.25667 8.33 9.55667 8.69 9.77C9.05 9.97667 9.46 10.08 9.92 10.08C10.38 10.08 10.79 9.97667 11.15 9.77C11.51 9.55667 11.79 9.25667 11.99 8.87C12.1967 8.47667 12.3 8.02333 12.3 7.51C12.3 6.99667 12.1967 6.54667 11.99 6.16C11.79 5.77333 11.51 5.47667 11.15 5.27C10.79 5.06333 10.38 4.96 9.92 4.96C9.46 4.96 9.05 5.06333 8.69 5.27C8.33 5.47667 8.04667 5.77333 7.84 6.16C7.64 6.54667 7.54 6.99667 7.54 7.51Z" fill="white"/>
</svg>
