<svg width="64" height="48" viewBox="0 0 64 48" fill="none" xmlns="http://www.w3.org/2000/svg">
<path d="M3.22543 44.3791C3.22543 44.6648 3.46578 44.8967 3.76265 44.8967H60.2359C60.3421 44.8967 60.4459 44.8662 60.534 44.8094C60.7812 44.6511 60.8483 44.3301 60.6837 44.0923L32.4455 3.33473C32.4064 3.27796 32.3554 3.22895 32.2964 3.1913C32.0499 3.03292 31.7158 3.09687 31.5512 3.33473L3.31452 44.0923C3.25552 44.1771 3.22446 44.2769 3.22446 44.3791L3.22543 44.3791ZM28.869 1.61279C30.0216 -0.0510182 32.358 -0.500973 34.087 0.608767C34.5006 0.873523 34.8553 1.21476 35.131 1.61279L63.3676 42.3703C64.5203 44.0348 64.0533 46.283 62.3237 47.3922C61.7057 47.7884 60.9797 48 60.2363 48H3.76298C1.68498 48 0 46.3792 0 44.3789C0 43.6642 0.219853 42.9655 0.632242 42.3703L28.869 1.61279ZM31.6233 13.7663H32.3766C33.2082 13.7663 33.8821 14.4153 33.8821 15.2156V31.9745C33.8821 32.7747 33.2082 33.4238 32.3766 33.4238H31.6233C30.7917 33.4238 30.1179 32.7747 30.1179 31.9745V15.2156C30.1179 14.4153 30.7917 13.7663 31.6233 13.7663ZM32.0003 39.8502C30.9606 39.8502 30.1178 39.0392 30.1178 38.0394C30.1178 37.0389 30.9606 36.2279 32.0003 36.2279C33.0393 36.2279 33.8821 37.0389 33.8821 38.0394C33.8821 39.0392 33.0393 39.8502 32.0003 39.8502Z" fill="#FF5555"/>
</svg>
