<svg width="20" height="13" viewBox="0 0 20 13" fill="none" xmlns="http://www.w3.org/2000/svg">
<path d="M0.856445 1.11345C0.856445 0.608468 1.26588 0.199219 1.77086 0.199219H18.2289C18.7339 0.199219 19.1433 0.608468 19.1433 1.11345C19.1433 1.61843 18.7339 2.02787 18.2289 2.02787H1.77086C1.26588 2.02787 0.856445 1.61844 0.856445 1.11345Z" fill="#DE0017"/>
<path d="M3.59961 6.59978C3.59961 6.0948 4.00886 5.68555 4.51384 5.68555H15.486C15.991 5.68555 16.4003 6.0948 16.4003 6.59978C16.4003 7.10476 15.991 7.5142 15.486 7.5142H4.51384C4.00886 7.5142 3.59961 7.10477 3.59961 6.59978Z" fill="#DE0017"/>
<path d="M7.2567 11.1709C6.75172 11.1709 6.34229 11.5803 6.34229 12.0853C6.34229 12.5903 6.75172 12.9996 7.2567 12.9996H12.7426C13.2476 12.9996 13.6568 12.5903 13.6568 12.0853C13.6568 11.5803 13.2476 11.1709 12.7426 11.1709H7.2567Z" fill="#DE0017"/>
</svg>
