<svg width="26" height="21" viewBox="0 0 26 21" fill="none" xmlns="http://www.w3.org/2000/svg">
<path d="M6.88669 10.3291L11.879 6.58483C12.095 6.42176 12.39 6.4118 12.6166 6.55953L15.0985 8.16748L18.2932 5.32756V5.32781C18.4289 5.20947 18.6068 5.15171 18.7863 5.16755C18.9662 5.1857 19.1303 5.27823 19.2389 5.42289L22.9185 10.3291H25.8234V0.64564C25.8234 0.474389 25.7554 0.310041 25.6342 0.188885C25.5133 0.067985 25.349 0 25.1777 0H0.645639C0.474388 0 0.310041 0.0679915 0.188885 0.188885C0.067985 0.310041 0 0.474389 0 0.64564V10.3291L6.88669 10.3291ZM4.51907 2.5825C5.03282 2.5825 5.52536 2.78672 5.88858 3.14993C6.25178 3.51313 6.45601 4.00566 6.45601 4.51917C6.45601 5.03293 6.25178 5.52547 5.88858 5.88869C5.52537 6.25189 5.03285 6.45611 4.51907 6.45611C4.00557 6.45611 3.51278 6.25189 3.14956 5.88869C2.78635 5.52548 2.58239 5.03295 2.58239 4.51917C2.5829 4.00593 2.78712 3.51341 3.15032 3.15045C3.51327 2.78724 4.00553 2.58302 4.51905 2.58251L4.51907 2.5825Z" fill="#0FBE41"/>
<path d="M5.1648 4.51843C5.1648 4.87499 4.87572 5.16407 4.51916 5.16407C4.16261 5.16407 3.87378 4.87499 3.87378 4.51843C3.87378 4.16213 4.16261 3.87305 4.51916 3.87305C4.87572 3.87305 5.1648 4.16213 5.1648 4.51843Z" fill="#0FBE41"/>
<path d="M9.03857 10.3286H12.6673L14.0984 9.05652L12.2931 7.8877L9.03857 10.3286Z" fill="#0FBE41"/>
<path d="M0.000488281 11.6201V20.0125C0.000488281 20.1838 0.0684798 20.3481 0.189374 20.469C0.310529 20.5902 0.474877 20.6582 0.646128 20.6582H25.1782C25.3495 20.6582 25.5138 20.5902 25.6347 20.469C25.7559 20.3481 25.8239 20.1838 25.8239 20.0125V11.6201H0.000488281ZM22.5958 17.4304H3.22829C2.87174 17.4304 2.58265 17.1413 2.58265 16.7847C2.58265 16.4282 2.87174 16.1391 3.22829 16.1391H22.5958C22.9523 16.1391 23.2414 16.4282 23.2414 16.7847C23.2414 17.1413 22.9523 17.4304 22.5958 17.4304ZM22.5958 14.8481H3.22829C2.87174 14.8481 2.58265 14.559 2.58265 14.2024C2.58265 13.8459 2.87174 13.5568 3.22829 13.5568H22.5958C22.9523 13.5568 23.2414 13.8459 23.2414 14.2024C23.2414 14.559 22.9523 14.8481 22.5958 14.8481Z" fill="#0FBE41"/>
<path d="M18.6256 6.75879L14.6089 10.3289H21.3033L18.6256 6.75879Z" fill="#0FBE41"/>
</svg>
