<svg width="54" height="23" viewBox="0 0 54 23" fill="none" xmlns="http://www.w3.org/2000/svg">
<path fill-rule="evenodd" clip-rule="evenodd" d="M29.2356 3.03755L25.4706 3.84556V0.793054L29.2356 0V3.03755ZM13.9348 1.73572L10.2748 2.51381L10.2598 14.4994C10.2598 16.714 11.9248 18.345 14.1448 18.345C15.3748 18.345 16.2748 18.1205 16.7698 17.8512V14.8136C16.2898 15.0082 13.9198 15.6965 13.9198 13.4819V8.16993H16.7698V4.98275H13.9198L13.9348 1.73572ZM54.0006 11.5816C54.0006 7.75095 52.1406 4.72837 48.5856 4.72837C45.0156 4.72837 42.8556 7.75095 42.8556 11.5516C42.8556 16.0556 45.4056 18.33 49.0656 18.33C50.8506 18.33 52.2006 17.926 53.2206 17.3574V14.3647C52.2006 14.8735 51.0306 15.1877 49.5456 15.1877C48.0906 15.1877 46.8006 14.679 46.6356 12.9133H53.9706C53.9706 12.8308 53.976 12.6435 53.9822 12.4276C53.9906 12.1343 54.0006 11.7884 54.0006 11.5816ZM46.591 10.1601C46.591 8.46922 47.626 7.76595 48.571 7.76595C49.486 7.76595 50.461 8.46922 50.461 10.1601H46.591ZM5.07 7.97548C4.275 7.97548 3.795 8.19993 3.795 8.7835C3.795 9.42066 4.62109 9.70094 5.64594 10.0487C7.31669 10.6155 9.5157 11.3616 9.525 14.1254C9.525 16.8038 7.38 18.345 4.26 18.345C2.97 18.345 1.56 18.0907 0.165 17.4921V13.9309C1.425 14.6192 3.015 15.1279 4.26 15.1279C5.1 15.1279 5.7 14.9035 5.7 14.2152C5.7 13.5094 4.8045 13.1868 3.7234 12.7973C2.07695 12.2042 0 11.456 0 8.96306C0 6.31455 2.025 4.72844 5.07 4.72844C6.315 4.72844 7.545 4.92296 8.79 5.41675V8.93313C7.65 8.31963 6.21 7.97548 5.07 7.97548ZM21.4351 6.09005L21.1951 4.98276H17.9551V18.0756H21.7051V9.20241C22.5901 8.05024 24.0901 8.25972 24.5551 8.42432V4.98276C24.0751 4.8032 22.3201 4.47401 21.4351 6.09005ZM25.4697 4.98277H29.2348V18.0756H25.4697V4.98277ZM34.1247 5.89551C34.6497 5.41669 35.5947 4.72838 37.0647 4.72838C39.6897 4.72838 42.1647 7.09258 42.1797 11.4319C42.1797 16.1753 39.7347 18.33 37.0497 18.33C35.7297 18.33 34.9347 17.7764 34.3947 17.3873L34.3797 21.622L30.6297 22.415V4.96779H33.9297L34.1247 5.89551ZM34.3946 14.3348C34.7546 14.7238 35.2796 15.0381 36.1646 15.0381C37.5446 15.0381 38.4746 13.5417 38.4746 11.5367C38.4746 9.57648 37.5296 8.05023 36.1646 8.05023C35.3096 8.05023 34.7696 8.34949 34.3796 8.78343L34.3946 14.3348Z" fill="#6461FC"/>
</svg>
