<svg width="129" height="54" viewBox="0 0 129 54" fill="none" xmlns="http://www.w3.org/2000/svg">
<circle cx="97.2501" cy="9.75" r="1.25" fill="#969696"/>
<circle cx="100.5" cy="2" r="2" fill="#BCCBD6" fill-opacity="0.48"/>
<path d="M109.664 8.576H107.108V11.168H106.088V8.576H103.544V7.652H106.088V5.048H107.108V7.652H109.664V8.576Z" fill="#1CBF73"/>
<circle cx="1.36364" cy="13.5004" r="1.36364" fill="#BCCBD6" fill-opacity="0.48"/>
<circle cx="13.6363" cy="7.36364" r="1.36364" fill="#BCCBD6" fill-opacity="0.48"/>
<path d="M13.9822 17.576H11.4262V20.168H10.4062V17.576H7.86224V16.652H10.4062V14.048H11.4262V16.652H13.9822V17.576Z" fill="#1CBF73"/>
<path d="M81.028 18.6479C80.5278 18.1468 79.7162 18.146 79.2161 18.6457L63.8435 33.9777L58.2971 27.9538C57.8178 27.4336 57.0075 27.3999 56.4865 27.8791C55.9658 28.3583 55.9324 29.169 56.4117 29.6897L62.8615 36.6943C63.0977 36.951 63.4282 37.1001 63.7768 37.1073C63.7862 37.1077 63.7952 37.1077 63.8042 37.1077C64.1429 37.1077 64.4688 36.9732 64.7088 36.734L81.0254 20.4601C81.5269 19.9604 81.5277 19.1489 81.028 18.6479Z" fill="#1CBF73"/>
<path d="M80.7187 29.7186C80.0109 29.7186 79.4373 30.2922 79.4373 31C79.4373 38.961 72.9611 45.4372 65.0001 45.4372C57.0396 45.4372 50.5629 38.961 50.5629 31C50.5629 23.0395 57.0396 16.5628 65.0001 16.5628C65.7079 16.5628 66.2816 15.9892 66.2816 15.2814C66.2816 14.5736 65.7079 14 65.0001 14C55.6262 14 48.0001 21.6261 48.0001 31C48.0001 40.3735 55.6262 48 65.0001 48C74.3736 48 82.0001 40.3735 82.0001 31C82.0001 30.2922 81.4265 29.7186 80.7187 29.7186Z" fill="#1CBF73"/>
<circle cx="114.629" cy="30.062" r="1.48681" transform="rotate(-33.6851 114.629 30.062)" fill="#BCCBD6" fill-opacity="0.48"/>
<circle cx="115.659" cy="43.6704" r="1.48681" transform="rotate(-33.6851 115.659 43.6704)" fill="#1CBF73"/>
<path d="M126.767 44.7386L124.641 46.1562L126.078 48.313L125.229 48.8787L123.792 46.7219L121.675 48.1329L121.163 47.3641L123.279 45.9531L121.835 43.7863L122.684 43.2206L124.128 45.3874L126.255 43.9697L126.767 44.7386Z" fill="#E8E8E8"/>
</svg>
