<svg width="30" height="24" viewBox="0 0 30 24" fill="none" xmlns="http://www.w3.org/2000/svg">
<path d="M30 2.92282C28.8766 3.41049 27.685 3.73059 26.4649 3.87249C27.7358 3.12608 28.7116 1.9441 29.1711 0.535798C27.963 1.23833 26.6412 1.7333 25.2628 1.99934C24.14 0.827243 22.5405 0.0947266 20.7702 0.0947266C17.3711 0.0947266 14.6152 2.79513 14.6152 6.12573C14.6152 6.5985 14.6696 7.05874 14.7745 7.50028C9.6593 7.24868 5.12414 4.84764 2.0884 1.19873C1.55871 2.08948 1.2552 3.12562 1.2552 4.23076C1.2552 6.32324 2.34188 8.16918 3.99328 9.25078C3.01588 9.22079 2.05998 8.96211 1.20539 8.49633C1.20504 8.5216 1.20504 8.54686 1.20504 8.57224C1.20504 11.4944 3.3266 13.932 6.14215 14.4861C5.2358 14.7277 4.28511 14.763 3.3627 14.5895C4.14586 16.9856 6.41895 18.7292 9.11215 18.778C7.0057 20.3955 4.35176 21.3598 1.46824 21.3598C0.971367 21.3598 0.481523 21.3312 0 21.2755C2.72379 22.9867 5.95898 23.9852 9.43477 23.9852C20.7559 23.9852 26.9466 14.795 26.9466 6.82518C26.9466 6.56359 26.9407 6.30349 26.9288 6.04489C28.1337 5.19132 29.1737 4.13409 30 2.92282" fill="#55ACEE"/>
</svg>
